<svg xmlns="http://www.w3.org/2000/svg" viewBox="0 0 520 640" role="img" aria-labelledby="title desc">
  <title id="title">辰烁科技能量流图 - CSergy逆变器</title>
  <desc id="desc">透明背景的辰烁科技白色储能逆变器插画</desc>
  <defs>
    <linearGradient id="front" x1="0" y1="0" x2="1" y2="1"><stop stop-color="#fff"/><stop offset=".55" stop-color="#f7f8f6"/><stop offset="1" stop-color="#d9e1e4"/></linearGradient>
    <linearGradient id="side" x1="0" y1="0" x2="1" y2="1"><stop stop-color="#e7ecee"/><stop offset="1" stop-color="#9eabb1"/></linearGradient>
    <linearGradient id="screen" x1="0" y1="0" x2="1" y2="0"><stop stop-color="#20282c"/><stop offset=".5" stop-color="#050708"/><stop offset="1" stop-color="#2b3336"/></linearGradient>
    <linearGradient id="orange" x1="0" y1="0" x2="1" y2="1"><stop stop-color="#ff9d2e"/><stop offset="1" stop-color="#e85312"/></linearGradient>
    <filter id="shadow" x="-30%" y="-20%" width="170%" height="160%"><feDropShadow dx="0" dy="18" stdDeviation="14" flood-color="#162b35" flood-opacity=".22"/></filter>
  </defs>
  <ellipse cx="263" cy="594" rx="163" ry="24" fill="#162d38" opacity=".12"/>
  <g filter="url(#shadow)" stroke-linejoin="round">
    <path d="m398 63 73 43v423l-72 56Z" fill="url(#side)" stroke="#68777d" stroke-width="7"/>
    <path d="M431 133h40v349h-40Z" fill="#e6ecee" stroke="#53636a" stroke-width="5"/>
    <g stroke="#6c7b81" stroke-width="4"> 
      <path d="M438 151h28M438 167h28M438 183h28M438 199h28M438 215h28M438 231h28M438 247h28M438 263h28M438 279h28M438 295h28M438 311h28M438 327h28M438 343h28M438 359h28M438 375h28M438 391h28M438 407h28M438 423h28M438 439h28M438 455h28"/>
    </g>
    <rect x="54" y="40" width="354" height="548" rx="29" fill="url(#front)" stroke="#5d6c72" stroke-width="8"/>
    <path d="M54 362h354" stroke="#809096" stroke-width="7"/>
    <rect x="247" y="119" width="91" height="196" rx="13" fill="url(#screen)" stroke="#11191d" stroke-width="6"/>
    <path d="M275 163a25 25 0 1 1-6 39" fill="none" stroke="url(#orange)" stroke-width="11" stroke-linecap="round"/>
    <circle cx="272" cy="200" r="6" fill="#ff8b23"/>
    <text x="292" y="240" text-anchor="middle" fill="#fff" font-family="Arial, sans-serif" font-size="23" font-weight="700">CSergy</text>
    <text x="100" y="153" fill="#555f63" font-family="Arial, sans-serif" font-size="38" font-weight="700">CS<tspan fill="#e86517">ergy</tspan></text>
    <text x="100" y="184" fill="#9aa4a8" font-family="Arial, sans-serif" font-size="13" letter-spacing="4">SMART ENERGY</text>
    <g fill="#829096" stroke="#536168" stroke-width="3">
      <circle cx="76" cy="66" r="8"/><circle cx="385" cy="66" r="8"/><circle cx="76" cy="340" r="8"/><circle cx="385" cy="340" r="8"/><circle cx="76" cy="385" r="8"/><circle cx="385" cy="385" r="8"/><circle cx="76" cy="562" r="8"/><circle cx="385" cy="562" r="8"/>
    </g>
    <g fill="#222a2e" stroke="#0f1416" stroke-width="5">
      <path d="M106 588h40v28h-40Z"/><path d="M164 588h48v35h-48Z"/><path d="M236 588h55v39h-55Z"/><path d="M316 588h52v34h-52Z"/>
    </g>
    <path d="m399 542 28 10v43h-26Z" fill="url(#orange)" stroke="#722d11" stroke-width="5"/>
  </g>
</svg>
