<svg xmlns="http://www.w3.org/2000/svg" viewBox="0 0 48 48" fill="none">
  <defs>
    <linearGradient id="wechat_grad" x1="0" y1="0" x2="0" y2="1">
      <stop offset="0%" stop-color="#09CE46"/>
      <stop offset="100%" stop-color="#07AD39"/>
    </linearGradient>
  </defs>
  <circle cx="24" cy="24" r="24" fill="url(#wechat_grad)"/>
  <path fill-rule="evenodd" clip-rule="evenodd" d="M19.5 13C14.254 13 10 16.582 10 21c0 2.57 1.397 4.865 3.56 6.44l-.895 2.685 3.12-1.56c1.04.31 2.15.495 3.315.495.345 0 .685-.015 1.02-.045-.21-.66-.325-1.355-.325-2.08 0-4.51 4.18-8.16 9.335-8.16.345 0 .685.02 1.02.055C30.1 15.465 25.185 13 19.5 13zm-2.85 3.6c-.705 0-1.275.57-1.275 1.275s.57 1.275 1.275 1.275 1.275-.57 1.275-1.275-.57-1.275-1.275-1.275zm5.7 0c-.705 0-1.275.57-1.275 1.275s.57 1.275 1.275 1.275 1.275-.57 1.275-1.275-.57-1.275-1.275-1.275zM38 27.5c0-3.865-3.68-7-8.13-7s-8.13 3.135-8.13 7 3.68 7 8.13 7c.93 0 1.83-.135 2.66-.38l2.52 1.26-.715-2.145C36.675 32.02 38 29.94 38 27.5zm-10.86-1.125c-.57 0-1.035-.465-1.035-1.035s.465-1.035 1.035-1.035 1.035.465 1.035 1.035-.465 1.035-1.035 1.035zm5.46 0c-.57 0-1.035-.465-1.035-1.035s.465-1.035 1.035-1.035 1.035.465 1.035 1.035-.465 1.035-1.035 1.035z" fill="white"/>
</svg>